<svg xmlns="http://www.w3.org/2000/svg" xmlns:xlink="http://www.w3.org/1999/xlink" width="512" zoomAndPan="magnify" viewBox="0 0 384 383.999986" height="512" preserveAspectRatio="xMidYMid meet" version="1.0"><defs><clipPath id="2368743924"><path d="M 0 161.761719 L 384 161.761719 L 384 222.511719 L 0 222.511719 Z M 0 161.761719 " clip-rule="nonzero"/></clipPath></defs><g clip-path="url(#2368743924)"><path fill="#221f20" d="M 384 192.136719 C 384 196.402344 374.34375 197.933594 362.871094 197.960938 L 340.800781 222.496094 L 334.867188 222.496094 L 348.515625 197.316406 C 340.804688 196.652344 333.695312 195.539062 329.441406 194.335938 L 320.320312 205.179688 L 315.175781 205.179688 L 321.050781 192.136719 L 315.175781 179.09375 L 320.320312 179.09375 L 329.441406 189.9375 C 333.695312 188.734375 340.804688 187.621094 348.515625 186.957031 L 334.867188 161.777344 L 340.800781 161.777344 L 362.871094 186.3125 C 374.34375 186.335938 384 187.871094 384 192.136719 Z M 310.539062 190.222656 C 311.589844 190.222656 312.441406 191.082031 312.441406 192.136719 C 312.441406 193.191406 311.585938 194.046875 310.539062 194.046875 L 306.726562 194.046875 C 305.671875 194.046875 304.820312 193.191406 304.820312 192.136719 C 304.820312 191.082031 305.675781 190.222656 306.726562 190.222656 Z M 1.90625 194.050781 C 0.855469 194.050781 0.00390625 193.191406 0.00390625 192.136719 C 0.00390625 191.082031 0.859375 190.226562 1.90625 190.226562 L 5.722656 190.226562 C 6.773438 190.226562 7.625 191.082031 7.625 192.136719 C 7.625 193.191406 6.769531 194.050781 5.722656 194.050781 Z M 17.152344 194.050781 C 16.097656 194.050781 15.246094 193.191406 15.246094 192.136719 C 15.246094 191.082031 16.101562 190.226562 17.152344 190.226562 L 20.964844 190.226562 C 22.015625 190.226562 22.867188 191.082031 22.867188 192.136719 C 22.867188 193.191406 22.011719 194.050781 20.964844 194.050781 Z M 32.390625 194.050781 C 31.339844 194.050781 30.488281 193.191406 30.488281 192.136719 C 30.488281 191.082031 31.339844 190.226562 32.390625 190.226562 L 36.203125 190.226562 C 37.257812 190.226562 38.109375 191.082031 38.109375 192.136719 C 38.109375 193.191406 37.253906 194.050781 36.203125 194.050781 Z M 47.632812 194.050781 C 46.582031 194.050781 45.730469 193.191406 45.730469 192.136719 C 45.730469 191.082031 46.582031 190.226562 47.632812 190.226562 L 51.441406 190.226562 C 52.496094 190.226562 53.347656 191.082031 53.347656 192.136719 C 53.347656 193.191406 52.496094 194.050781 51.441406 194.050781 Z M 62.875 194.050781 C 61.824219 194.050781 60.96875 193.191406 60.96875 192.136719 C 60.96875 191.082031 61.824219 190.226562 62.875 190.226562 L 66.683594 190.226562 C 67.738281 190.226562 68.589844 191.082031 68.589844 192.136719 C 68.589844 193.191406 67.738281 194.050781 66.683594 194.050781 Z M 78.113281 194.050781 C 77.0625 194.050781 76.210938 193.191406 76.210938 192.136719 C 76.210938 191.082031 77.066406 190.226562 78.113281 190.226562 L 81.921875 190.226562 C 82.976562 190.226562 83.832031 191.082031 83.832031 192.136719 C 83.832031 193.191406 82.976562 194.050781 81.921875 194.050781 Z M 93.355469 194.050781 C 92.300781 194.050781 91.449219 193.191406 91.449219 192.136719 C 91.449219 191.082031 92.300781 190.226562 93.355469 190.226562 L 97.164062 190.226562 C 98.214844 190.226562 99.066406 191.082031 99.066406 192.136719 C 99.066406 193.191406 98.214844 194.050781 97.164062 194.050781 Z M 108.597656 194.050781 C 107.542969 194.050781 106.691406 193.191406 106.691406 192.136719 C 106.691406 191.082031 107.542969 190.226562 108.597656 190.226562 L 112.40625 190.226562 C 113.457031 190.226562 114.308594 191.082031 114.308594 192.136719 C 114.308594 193.191406 113.457031 194.050781 112.40625 194.050781 Z M 123.835938 194.050781 C 122.78125 194.050781 121.929688 193.191406 121.929688 192.136719 C 121.929688 191.082031 122.785156 190.226562 123.835938 190.226562 L 127.648438 190.226562 C 128.699219 190.226562 129.550781 191.082031 129.550781 192.136719 C 129.550781 193.191406 128.695312 194.050781 127.648438 194.050781 Z M 139.074219 194.050781 C 138.023438 194.050781 137.171875 193.191406 137.171875 192.136719 C 137.171875 191.082031 138.023438 190.226562 139.074219 190.226562 L 142.886719 190.226562 C 143.941406 190.226562 144.792969 191.082031 144.792969 192.136719 C 144.792969 193.191406 143.9375 194.050781 142.886719 194.050781 Z M 154.316406 194.050781 C 153.265625 194.050781 152.414062 193.191406 152.414062 192.136719 C 152.414062 191.082031 153.265625 190.226562 154.316406 190.226562 L 158.128906 190.226562 C 159.179688 190.226562 160.03125 191.082031 160.03125 192.136719 C 160.03125 193.191406 159.179688 194.050781 158.128906 194.050781 Z M 169.558594 194.050781 C 168.507812 194.050781 167.652344 193.191406 167.652344 192.136719 C 167.652344 191.082031 168.507812 190.226562 169.558594 190.226562 L 173.371094 190.226562 C 174.421875 190.226562 175.273438 191.082031 175.273438 192.136719 C 175.273438 193.191406 174.421875 194.050781 173.371094 194.050781 Z M 184.800781 194.050781 C 183.75 194.050781 182.898438 193.191406 182.898438 192.136719 C 182.898438 191.082031 183.75 190.226562 184.800781 190.226562 L 188.609375 190.226562 C 189.664062 190.226562 190.515625 191.082031 190.515625 192.136719 C 190.515625 193.191406 189.664062 194.050781 188.609375 194.050781 Z M 200.042969 194.050781 C 198.988281 194.050781 198.136719 193.191406 198.136719 192.136719 C 198.136719 191.082031 198.992188 190.226562 200.042969 190.226562 L 203.851562 190.226562 C 204.90625 190.226562 205.757812 191.082031 205.757812 192.136719 C 205.757812 193.191406 204.902344 194.050781 203.851562 194.050781 Z M 215.28125 194.050781 C 214.230469 194.050781 213.378906 193.191406 213.378906 192.136719 C 213.378906 191.082031 214.230469 190.226562 215.28125 190.226562 L 219.089844 190.226562 C 220.140625 190.226562 221 191.082031 221 192.136719 C 221 193.191406 220.140625 194.050781 219.089844 194.050781 Z M 230.523438 194.050781 C 229.46875 194.050781 228.617188 193.191406 228.617188 192.136719 C 228.617188 191.082031 229.46875 190.226562 230.523438 190.226562 L 234.332031 190.226562 C 235.382812 190.226562 236.234375 191.082031 236.234375 192.136719 C 236.234375 193.191406 235.382812 194.050781 234.332031 194.050781 Z M 245.765625 194.050781 C 244.707031 194.050781 243.855469 193.191406 243.855469 192.136719 C 243.855469 191.082031 244.710938 190.226562 245.765625 190.226562 L 249.574219 190.226562 C 250.625 190.226562 251.476562 191.082031 251.476562 192.136719 C 251.476562 193.191406 250.625 194.050781 249.574219 194.050781 Z M 261 194.050781 C 259.949219 194.050781 259.097656 193.191406 259.097656 192.136719 C 259.097656 191.082031 259.953125 190.226562 261 190.226562 L 264.8125 190.226562 C 265.867188 190.226562 266.71875 191.082031 266.71875 192.136719 C 266.71875 193.191406 265.863281 194.050781 264.8125 194.050781 Z M 276.242188 194.050781 C 275.191406 194.050781 274.339844 193.191406 274.339844 192.136719 C 274.339844 191.082031 275.191406 190.226562 276.242188 190.226562 L 280.054688 190.226562 C 281.105469 190.226562 281.957031 191.082031 281.957031 192.136719 C 281.957031 193.191406 281.105469 194.050781 280.054688 194.050781 Z M 291.484375 194.050781 C 290.433594 194.050781 289.582031 193.191406 289.582031 192.136719 C 289.582031 191.082031 290.433594 190.226562 291.484375 190.226562 L 295.296875 190.226562 C 296.347656 190.226562 297.199219 191.082031 297.199219 192.136719 C 297.199219 193.191406 296.347656 194.050781 295.296875 194.050781 Z M 291.484375 194.050781 " fill-opacity="1" fill-rule="evenodd"/></g></svg>